<?xml version="1.0" encoding="UTF-8" standalone="no"?>
<svg
   width="100%"
   height="100%"
   viewBox="0 0 2481 1749"
   version="1.1"
   xml:space="preserve"
   style="fill-rule:evenodd;clip-rule:evenodd;stroke-linecap:round;stroke-linejoin:round;stroke-miterlimit:1.5;"
   id="svg20"
   sodipodi:docname="Strompuls.svg"
   inkscape:version="1.4.4 (dcaf3e7d9e, 2026-05-05)"
   xmlns:inkscape="http://www.inkscape.org/namespaces/inkscape"
   xmlns:sodipodi="http://sodipodi.sourceforge.net/DTD/sodipodi-0.dtd"
   xmlns="http://www.w3.org/2000/svg"
   xmlns:svg="http://www.w3.org/2000/svg"><defs
   id="defs20" /><sodipodi:namedview
   id="namedview20"
   pagecolor="#ffffff"
   bordercolor="#000000"
   borderopacity="0.25"
   inkscape:showpageshadow="2"
   inkscape:pageopacity="0.0"
   inkscape:pagecheckerboard="0"
   inkscape:deskcolor="#d1d1d1"
   inkscape:zoom="0.70175385"
   inkscape:cx="1059.4883"
   inkscape:cy="822.22563"
   inkscape:window-width="3040"
   inkscape:window-height="1822"
   inkscape:window-x="16"
   inkscape:window-y="82"
   inkscape:window-maximized="1"
   inkscape:current-layer="svg20" />
    <path
   d="M524.384,994.221C557.554,993.705 929.505,987.912 939.005,987.998C1045.55,988.963 1044.66,999.467 1151.33,1001"
   style="fill:none;stroke:black;stroke-width:4.4px;"
   id="path1" />
    <g
   transform="matrix(1,0,0,1,820.284,7.25915)"
   id="g2">
        <path
   d="M524.384,994.221C557.554,993.705 929.505,987.912 939.005,987.998C1045.55,988.963 1044.66,999.467 1151.33,1001"
   style="fill:none;stroke:black;stroke-width:4.4px;"
   id="path2" />
    </g>
    <path
   d="M527.636,990.403C520.954,830.822 519.955,831.304 522.639,672.064C523.68,610.29 517.2,611.028 514.719,546.3"
   style="fill:none;stroke:black;stroke-width:4.4px;"
   id="path3" />
    <g
   transform="matrix(1,0,0,1,820.284,7.25915)"
   id="g4">
        <path
   d="M527.636,990.403C520.954,830.822 519.955,831.304 522.639,672.064C523.68,610.29 517.2,611.028 514.719,546.3"
   style="fill:none;stroke:black;stroke-width:4.4px;"
   id="path4" />
    </g>
    <path
   d="M491.761,576.422C522.556,522.178 536.334,558.203 549.983,570.967"
   style="fill:none;stroke:black;stroke-width:4.4px;"
   id="path5" />
    <g
   transform="matrix(1,0,0,1,820.284,7.25915)"
   id="g6">
        <path
   d="M491.761,576.422C522.556,522.178 536.334,558.203 549.983,570.967"
   style="fill:none;stroke:black;stroke-width:4.4px;"
   id="path6" />
    </g>
    <path
   d="M1133.38,980.283C1137.14,980.836 1151.86,989.766 1154.55,994.076C1159.26,1001.62 1154.01,1000.89 1145.34,1011.6"
   style="fill:none;stroke:black;stroke-width:4.4px;"
   id="path7" />
    <g
   transform="matrix(1,0,0,1,820.284,7.25915)"
   id="g8">
        <path
   d="M1133.38,980.283C1137.14,980.836 1151.86,989.766 1154.55,994.076C1159.26,1001.62 1154.01,1000.89 1145.34,1011.6"
   style="fill:none;stroke:black;stroke-width:4.4px;"
   id="path8" />
    </g>
    <path
   d="M1109.11,887.9C1108.85,887.934 1108.8,888.402 1108.54,888.436C1107.68,888.547 1004.7,884.677 904.416,885.258C783.513,885.959 705.802,892.532 561.504,900.163C560.882,900.196 551.987,900.689 523.408,901.975C523.299,901.98 523.246,901.829 523.165,901.756C523.271,901.732 523.278,901.54 523.384,901.515C523.386,901.514 529.434,901.179 534.579,900.89L724.585,890.116C833.087,884.223 922.195,881.759 1105.67,887.245C1108.35,887.325 1108.35,887.288 1108.58,887.332C1108.99,887.411 1108.69,887.821 1109.11,887.9Z"
   id="path9" />
    <g
   transform="matrix(1,0,0,1,820.284,7.25915)"
   id="g10">
        <path
   d="M1109.11,887.9C1108.85,887.934 1108.8,888.402 1108.54,888.436C1107.68,888.547 1004.7,884.677 904.416,885.258C783.513,885.959 705.802,892.532 561.504,900.163C560.882,900.196 551.987,900.689 523.408,901.975C523.299,901.98 523.246,901.829 523.165,901.756C523.271,901.732 523.278,901.54 523.384,901.515C523.386,901.514 529.434,901.179 534.579,900.89L724.585,890.116C833.087,884.223 922.195,881.759 1105.67,887.245C1108.35,887.325 1108.35,887.288 1108.58,887.332C1108.99,887.411 1108.69,887.821 1109.11,887.9Z"
   id="path10" />
    </g>
    <path
   d="M458.738,892.703C458.608,892.604 458.525,892.541 458.524,892.539C458.415,891.809 458.024,891.065 458.204,890.35C458.554,888.959 458.754,889.023 460.005,888.318C466.893,884.433 471.546,884.506 472.598,884.523C483.244,884.691 483.747,896.061 483.833,896.874C487.456,930.833 458.393,923.146 455.143,912.754C454.715,911.384 454.52,906.045 454.985,902.238C455.553,897.593 456.982,894.617 458.738,892.703ZM471.391,890.029C471.49,890.911 470.719,891.437 470.603,891.516C468.333,893.066 460.13,889.804 458.531,901.51C457.932,905.892 458.538,911.147 458.676,911.585C460.156,916.27 474.463,922.312 478.277,910.941C478.464,910.385 480.171,905.974 478.77,896.732C477.91,891.057 475.32,889.51 471.391,890.029Z"
   id="path11" />
    <g
   transform="matrix(1,0,0,1,820.284,7.25915)"
   id="g12">
        <path
   d="M458.738,892.703C458.608,892.604 458.525,892.541 458.524,892.539C458.415,891.809 458.024,891.065 458.204,890.35C458.554,888.959 458.754,889.023 460.005,888.318C466.893,884.433 471.546,884.506 472.598,884.523C483.244,884.691 483.747,896.061 483.833,896.874C487.456,930.833 458.393,923.146 455.143,912.754C454.715,911.384 454.52,906.045 454.985,902.238C455.553,897.593 456.982,894.617 458.738,892.703ZM471.391,890.029C471.49,890.911 470.719,891.437 470.603,891.516C468.333,893.066 460.13,889.804 458.531,901.51C457.932,905.892 458.538,911.147 458.676,911.585C460.156,916.27 474.463,922.312 478.277,910.941C478.464,910.385 480.171,905.974 478.77,896.732C477.91,891.057 475.32,889.51 471.391,890.029Z"
   id="path12" />
    </g>
    <path
   d="M528.347,894.002C527.197,892.838 526.945,892.927 527.056,892.667C527.197,892.336 527.229,891.927 527.488,891.675C527.561,891.603 527.973,891.201 528.703,891.279C530.859,891.51 538.129,892.394 548.634,891.331C551.056,891.086 572.233,891.735 593.22,878.28C617.324,862.825 627.304,838.076 632.507,824.058C663.894,739.489 646.887,634.746 657.68,604.404C658.255,602.787 663.356,586.916 679.916,597.643C687.714,602.693 693.918,610.06 694.966,611.303C739.552,664.244 728.456,786.281 741.143,899.246C754.489,888.576 765.183,883.583 786.117,882.137C796.576,881.415 805.439,881.45 847.284,881.98C890.027,882.521 906.649,885.565 946.233,874.224C947.771,873.784 947.855,873.798 949.255,874.572C949.269,874.58 951.159,876.947 951.158,876.956C951.044,877.96 951.299,879.084 950.81,879.969C949.795,881.806 949.492,881.57 947.472,882.145C906.988,893.678 888.938,890.446 845.165,889.994C776.231,889.282 766.96,887.548 741.273,909.688C741.181,909.767 740.368,910.467 740.089,910.637C737.794,912.033 734.412,910.844 733.942,907.651C733.564,905.075 732.548,895.388 732.436,894.32C719.829,774.073 731.821,645.932 677.328,605.664C669.807,600.107 668.03,602.362 667.401,603.049C660.957,610.085 661.441,642.756 660.986,674.859C660.348,719.911 658.145,785.429 634.176,838.831C627.762,853.12 609.984,887.205 566.824,895.718C557.058,897.645 548.969,897.583 548.315,897.539C537.217,896.79 529.373,894.414 528.332,894.123L528.347,894.002ZM528.406,894.062L528.403,894.12L528.466,894.123C528.446,894.103 528.426,894.082 528.406,894.062Z"
   id="path13" />
    <path
   d="M1343.97,909.918C1344.66,909.094 1344.22,908.591 1345.27,908.36L1354.62,906.288C1356,905.979 1357.37,905.583 1358.77,905.359C1360.66,905.058 1403.44,901.387 1413.45,898.722C1452.76,888.253 1470.71,803.981 1500.86,777.85C1502.45,776.474 1510.37,769.435 1521.29,769.456C1529.34,769.471 1535.61,773.176 1538.01,774.37C1543.18,776.941 1547.46,780.189 1549.3,781.605C1549.46,781.729 1549.48,781.742 1550.85,783.627C1551.42,784.42 1551.36,784.464 1552.05,785.165C1572.4,805.987 1590.94,842.158 1595.23,850.226C1611.07,880.019 1621.82,898.308 1659.08,886.017C1676.59,880.243 1692.96,870.045 1699.63,866.608C1742.08,844.754 1768.59,853.628 1798.73,866.533C1831.41,880.527 1867.55,898.541 1935.76,885.407C1937.18,885.133 1937.26,885.154 1938.46,885.962C1938.47,885.972 1939.98,888.254 1939.98,888.263C1939.8,889.158 1939.94,890.19 1939.42,890.947C1938.39,892.481 1938.15,892.274 1936.34,892.621C1842.64,910.533 1806.92,871.234 1763.86,862.65C1744.31,858.753 1728.35,863.983 1723.4,865.627C1708.96,870.427 1699.06,877.06 1688.6,882.615C1639.51,908.698 1616.92,901.256 1599.55,876.105C1589.3,861.269 1581.77,842.112 1564.45,816.494C1556.22,804.34 1549.79,796.874 1545.03,792.077C1544.92,791.963 1544.98,791.878 1542.66,790.383C1541.87,789.874 1541.86,789.891 1541.8,789.837C1541.59,789.654 1537.98,785.251 1533.12,781.599C1533.08,781.573 1529.38,778.951 1524.82,777.741C1517.76,775.868 1512.94,778.35 1510.8,779.537C1484.24,794.272 1467.16,863.982 1435.91,893.175C1423.89,904.408 1414.15,905.723 1408.15,906.676C1395,908.762 1365.24,911.252 1359.5,911.746C1359.21,911.771 1350.57,911.412 1345.52,911.206C1344.46,911.162 1344.79,910.599 1343.97,909.918Z"
   id="path14" />
    
    
    
    
    
    
<text
   xml:space="preserve"
   style="font-size:106.667px;line-height:1;font-family:'Allerta Stencil';-inkscape-font-specification:'Allerta Stencil';text-align:center;text-decoration-color:#000000;letter-spacing:0px;word-spacing:0px;writing-mode:lr-tb;direction:ltr;text-orientation:upright;text-anchor:middle;fill:#ffffff;stroke:#000000;stroke-width:3.77953"
   x="842.45221"
   y="1166.0569"
   id="text20"><tspan
     sodipodi:role="line"
     id="tspan20"
     x="842.45221"
     y="1166.0569"
     style="font-style:normal;font-variant:normal;font-weight:normal;font-stretch:normal;font-size:106.667px;line-height:1;font-family:Arial;-inkscape-font-specification:Arial;letter-spacing:0px;fill:#000000;stroke:none">Herznah</tspan></text><text
   xml:space="preserve"
   style="font-size:106.667px;line-height:1;font-family:'Allerta Stencil';-inkscape-font-specification:'Allerta Stencil';text-align:center;text-decoration-color:#000000;letter-spacing:0px;word-spacing:0px;writing-mode:lr-tb;direction:ltr;text-orientation:upright;text-anchor:middle;clip-rule:evenodd;fill:#ffffff;fill-rule:evenodd;stroke:#000000;stroke-width:3.77953;stroke-linecap:round;stroke-linejoin:round;stroke-miterlimit:1.5"
   x="1690.7017"
   y="1170.7607"
   id="text20-3"><tspan
     sodipodi:role="line"
     id="tspan20-0"
     x="1690.7017"
     y="1170.7607"
     style="font-style:normal;font-variant:normal;font-weight:normal;font-stretch:normal;font-size:106.667px;line-height:1;font-family:Arial;-inkscape-font-specification:Arial;letter-spacing:0px;fill:#000000;stroke:none">Herzfern</tspan></text><text
   xml:space="preserve"
   style="font-style:normal;font-variant:normal;font-weight:normal;font-stretch:normal;font-size:106.667px;line-height:1;font-family:Arial;-inkscape-font-specification:Arial;text-align:center;text-decoration-color:#000000;letter-spacing:0px;word-spacing:0px;writing-mode:lr-tb;direction:ltr;text-orientation:upright;text-anchor:middle;fill:#000000;stroke:none;stroke-width:3.77953"
   x="1199.7732"
   y="1031.4281"
   id="text21"><tspan
     sodipodi:role="line"
     id="tspan21"
     x="1199.7732"
     y="1031.4281">t</tspan></text><text
   xml:space="preserve"
   style="font-style:normal;font-variant:normal;font-weight:normal;font-stretch:normal;font-size:106.667px;line-height:1;font-family:Arial;-inkscape-font-specification:Arial;text-align:center;text-decoration-color:#000000;letter-spacing:0px;word-spacing:0px;writing-mode:lr-tb;direction:ltr;text-orientation:upright;text-anchor:middle;clip-rule:evenodd;fill:#000000;fill-rule:evenodd;stroke:none;stroke-width:3.77953;stroke-linecap:round;stroke-linejoin:round;stroke-miterlimit:1.5"
   x="2013.1825"
   y="1035.6808"
   id="text21-8"><tspan
     sodipodi:role="line"
     id="tspan21-6"
     x="2013.1825"
     y="1035.6808">t</tspan></text><text
   xml:space="preserve"
   style="font-style:normal;font-variant:normal;font-weight:normal;font-stretch:normal;font-size:106.667px;line-height:1;font-family:Arial;-inkscape-font-specification:Arial;text-align:center;text-decoration-color:#000000;letter-spacing:0px;word-spacing:0px;writing-mode:lr-tb;direction:ltr;text-orientation:upright;text-anchor:middle;fill:#000000;stroke:none;stroke-width:3.77953"
   x="440.3356"
   y="586.69537"
   id="text22"><tspan
     sodipodi:role="line"
     id="tspan22"
     x="440.3356"
     y="586.69537">v</tspan></text><text
   xml:space="preserve"
   style="font-style:normal;font-variant:normal;font-weight:normal;font-stretch:normal;font-size:106.667px;line-height:1;font-family:Arial;-inkscape-font-specification:Arial;text-align:center;text-decoration-color:#000000;letter-spacing:0px;word-spacing:0px;writing-mode:lr-tb;direction:ltr;text-orientation:upright;text-anchor:middle;clip-rule:evenodd;fill:#000000;fill-rule:evenodd;stroke:none;stroke-width:3.77953;stroke-linecap:round;stroke-linejoin:round;stroke-miterlimit:1.5"
   x="1269.5615"
   y="558.36707"
   id="text22-8"
   inkscape:export-filename="Strompuls.png"
   inkscape:export-xdpi="300"
   inkscape:export-ydpi="300"><tspan
     sodipodi:role="line"
     id="tspan22-4"
     x="1269.5615"
     y="558.36707">v</tspan></text></svg>
